<svg xmlns="http://www.w3.org/2000/svg" viewBox="0 0 137.86 49.62"><defs><style>.cls-1{fill:#fff;fill-rule:evenodd;}</style></defs><g id="Layer_2" data-name="Layer 2"><g id="Layer_1-2" data-name="Layer 1"><path class="cls-1" d="M17.66,2.2C8.69,12.74.09,25.8,0,35.57a11.58,11.58,0,0,0,4,9.31,19.19,19.19,0,0,0,13,4.74c6.49,0,12.93-2.61,18-4.63C43.37,41.59,137.28.81,137.28.81c.91-.45.74-1-.4-.73C136.42.19,34.65,27.77,34.65,27.77a22.4,22.4,0,0,1-5.92.85C20.91,28.67,14,24.32,14,15.17c0-3.57,1.12-7.89,3.66-13Z"/></g></g></svg>