<svg xmlns="http://www.w3.org/2000/svg" viewBox="0 0 594.94 594.94"><defs><style>.cls-1{fill:none;}.cls-2,.cls-3{fill:#fff;}.cls-2{fill-rule:evenodd;}.cls-4{fill:#ebf000;}</style></defs><g id="Layer_2" data-name="Layer 2"><g id="Layer_1-2" data-name="Layer 1"><circle class="cls-1" cx="297.47" cy="297.47" r="297.47"/><path class="cls-2" d="M244.11,496.6c-9,10.53-17.57,23.6-17.66,33.36a11.57,11.57,0,0,0,4,9.32,19.22,19.22,0,0,0,13,4.74c6.48,0,12.93-2.61,18-4.63,8.5-3.4,102.4-44.18,102.4-44.18.91-.45.74-1-.4-.74L261.1,522.17a22.4,22.4,0,0,1-5.92.85c-7.82,0-14.78-4.3-14.73-13.45,0-3.58,1.12-7.89,3.66-13Z"/><rect class="cls-3" x="526.97" y="294.72" width="30" height="9.56" rx="4.78"/><path class="cls-2" d="M535.58,193.1l-27.45,15.12c-1.83,1-2.71,3.82-1.95,6.25h0c.76,2.43,2.87,3.59,4.7,2.59l27.45-15.12c1.83-1,2.71-3.82,1.95-6.25h0C539.52,193.26,537.41,192.1,535.58,193.1Z"/><rect class="cls-3" x="445.13" y="120.27" width="49.04" height="9.56" rx="4.78" transform="translate(49.27 368.96) rotate(-45.03)"/><rect class="cls-3" x="96.25" y="120.68" width="49.04" height="9.56" rx="4.78" transform="translate(117.75 299.57) rotate(-135.1)"/><path class="cls-2" d="M52.36,202.51l27.5,15c1.83,1,4-.17,4.7-2.6h0c.76-2.43-.12-5.24-2-6.24l-27.49-15c-1.84-1-4,.16-4.71,2.6h0C49.65,198.7,50.53,201.51,52.36,202.51Z"/><path class="cls-2" d="M37.45,304.89l22.83-.09c2,0,3.58-2.16,3.58-4.79h0c0-2.63-1.63-4.78-3.6-4.77l-22.83.09c-2,0-3.58,2.16-3.57,4.79h0C33.86,302.75,35.48,304.9,37.45,304.89Z"/><path class="cls-2" d="M55.48,406.45l27.44-15.2c1.83-1,2.7-3.82,1.94-6.25h0c-.77-2.43-2.89-3.59-4.72-2.57L52.7,397.63c-1.83,1-2.7,3.82-1.94,6.25h0C51.53,406.31,53.65,407.47,55.48,406.45Z"/><rect class="cls-3" x="97.05" y="469.56" width="49.04" height="9.56" rx="4.78" transform="translate(543.66 722.57) rotate(134.84)"/><rect class="cls-3" x="445.93" y="468.35" width="49.04" height="9.56" rx="4.78" transform="translate(469.66 -194.08) rotate(44.77)"/><path class="cls-2" d="M538.67,395.92,511.17,381c-1.84-1-3.95.18-4.7,2.61h0c-.75,2.44.14,5.24,2,6.24l27.5,14.95c1.84,1,3.95-.18,4.7-2.62h0C541.39,399.72,540.5,396.91,538.67,395.92Z"/><path class="cls-4" d="M279.87,133.43H256.72V42.19H245.57V25.8c7.43-.67,10.81-2.87,15-8.45l2-2.7h17.23Z"/><path class="cls-4" d="M315.85,63c2.88-3.71,4.06-6.08,4.06-9.8V38.64c0-2.87-1.35-4.22-4.22-4.22h-1.52c-2.88,0-4.23,1.35-4.23,4.22v19.6h-22.3V36.11c0-14.7,7.26-22,22-22h11.66c14.7,0,22,7.27,22,22V53.85c0,8.45-2.2,14.7-9.46,23.82l-19.1,24c-2.87,3.71-4.05,6.08-4.05,9.8v.84h32.61v21.12H287.3V110.79c0-8.79,2.2-14.7,9.46-23.82Z"/></g></g></svg>